{"title":"The.Experiment BDRip XviD avi DTS 2010 - MAGNET","uid":5819560,"size":2318493983,"categoryP":"video","categoryS":"movies","magnet":"?xt=urn:btih:97c1bde75d2d8a25457b0289d6eb170f2c95e072&amp;dn=The.Experiment+BDRip+XviD+avi+DTS+2010+-+MAGNET&amp;tr=udp%3A%2F%2Ftracker.openbittorrent.com%3A80&amp;tr=udp%3A%2F%2Fopen.demonii.com%3A1337&amp;tr=udp%3A%2F%2Ftracker.coppersurfer.tk%3A6969&amp;tr=udp%3A%2F%2Fexodus.desync.com%3A6969","seeders":0,"leechers":0,"uploader":"gene67","files":2,"time":1283995023,"description":" Video #0\n      ID : 0\n      Format : MPEG-4 Visual\n      Format profile : Advanced Simple@L5\n      Format settings, BVOP : Yes\n      Format settings, QPel : No\n      Format settings, GMC : No warppoints\n      Format settings, Matrix : Default (H.263)\n      Muxing mode : Packed bitstream\n      Codec ID : XVID\n      Codec ID/Hint : XviD\n      Duration : 1h 36mn\n      Bit rate : 1 696 Kbps\n      Width : 720 pixels\n      Height : 296 pixels\n      Display aspect ratio : 2.40:1\n      Frame rate : 23.976 fps\n      Resolution : 8 bits\n      Colorimetry : 4:2:0\n      Scan type : Progressive\n      Bits/(Pixel*Frame) : 0.332\n      Stream size : 1.14 GiB (53%)\n      Writing library : XviD 1.3.0.dev55\n   Audio #1\n      ID : 1\n      Format : DTS\n      Format/Info : Digital Theater Systems\n      Codec ID : 2001\n      Codec ID/Info : Digital Theater Systems\n      Duration : 1h 36mn\n      Bit rate mode : Constant\n      Bit rate : 1 510 Kbps\n      Channel(s) : 6 channels\n      Channel positions : Front: L C R, Side: L R, LFE\n      Sampling rate : 48.0 KHz\n      Resolution : 24 bits\n      Stream size : 1.01 GiB (47%)\n      Alignment : Split accross interleaves\n      Interleave, duration : 42 ms (1.00 video frame)\n      Interleave, preload duration : 500 ms","torrent":{"xt":"urn:btih:97c1bde75d2d8a25457b0289d6eb170f2c95e072","amp;dn":"The.Experiment+BDRip+XviD+avi+DTS+2010+-+MAGNET","amp;tr":["udp%3A%2F%2Ftracker.openbittorrent.com%3A80","udp%3A%2F%2Fopen.demonii.com%3A1337","udp%3A%2F%2Ftracker.coppersurfer.tk%3A6969","udp%3A%2F%2Fexodus.desync.com%3A6969"],"infoHash":"97c1bde75d2d8a25457b0289d6eb170f2c95e072","infoHashBuffer":{"type":"Buffer","data":[151,193,189,231,93,45,138,37,69,123,2,137,214,235,23,15,44,149,224,114]},"announce":[],"urlList":[]}}